<?xml version="1.0" standalone="no"?>
<!DOCTYPE svg PUBLIC "-//W3C//DTD SVG 20010904//EN"
 "http://www.w3.org/TR/2001/REC-SVG-20010904/DTD/svg10.dtd">
<svg version="1.0" xmlns="http://www.w3.org/2000/svg"
 width="512.000000pt" height="512.000000pt" viewBox="0 0 512.000000 512.000000"
 preserveAspectRatio="xMidYMid meet">

<g transform="translate(0.000000,512.000000) scale(0.100000,-0.100000)"
fill="#000000" stroke="none">
<path d="M0 4123 l0 -998 23 35 c571 899 916 1435 948 1473 53 63 129 113 209
138 54 18 99 22 272 26 l206 6 101 148 c56 82 109 153 119 158 11 7 -293 10
-930 11 l-948 0 0 -997z"/>
<path d="M3242 5109 c10 -5 63 -76 119 -158 l101 -148 206 -6 c234 -5 296 -18
389 -81 92 -63 40 16 1040 -1556 l23 -35 0 998 0 997 -947 0 c-638 -1 -942 -4
-931 -11z"/>
<path d="M2398 4887 l162 -82 163 82 162 82 -325 0 -325 0 163 -82z"/>
<path d="M1861 4840 c-40 -59 -72 -113 -70 -119 5 -12 327 -409 339 -416 8 -5
310 375 310 389 0 5 -495 257 -502 256 -2 -1 -36 -50 -77 -110z"/>
<path d="M2928 4824 c-137 -68 -248 -127 -248 -130 0 -14 302 -394 310 -389
12 7 334 404 339 416 3 10 -139 228 -149 228 -3 0 -116 -56 -252 -125z"/>
<path d="M1233 4633 l-53 -16 0 -157 c0 -144 -2 -160 -21 -184 -15 -19 -30
-26 -53 -26 -53 0 -70 28 -76 126 l-5 83 -335 -525 c-184 -290 -338 -532 -342
-539 -5 -9 89 -58 335 -174 l342 -161 5 120 c6 136 15 154 76 154 26 0 42 -7
55 -23 18 -22 19 -64 19 -1172 0 -837 -3 -1155 -11 -1173 -23 -50 -105 -51
-128 0 -8 18 -11 244 -11 817 l0 793 -497 233 c-274 128 -506 242 -515 253
-17 19 -18 -52 -18 -1521 l0 -1541 541 0 c534 0 541 0 518 19 l-24 19 -3 316
-3 316 25 25 c32 32 70 32 101 0 l25 -24 0 -261 0 -260 1380 0 1380 0 0 869
c0 863 0 868 21 895 28 36 80 36 108 -1 21 -26 21 -26 19 -950 l-3 -925 -24
-19 c-23 -19 -16 -19 518 -19 l541 0 0 1541 c0 1469 -1 1540 -18 1521 -9 -11
-241 -125 -514 -254 l-498 -233 0 -186 c0 -173 -1 -188 -21 -213 -28 -36 -80
-36 -108 0 -21 26 -21 36 -21 569 0 515 1 544 19 566 13 16 29 23 55 23 62 0
71 -18 74 -154 2 -66 5 -120 6 -120 12 0 677 320 678 327 0 4 -152 247 -338
540 l-339 532 -5 -83 c-6 -98 -23 -126 -76 -126 -23 0 -38 7 -53 26 -19 24
-21 40 -21 184 l0 157 -58 17 c-44 12 -102 16 -238 16 l-179 0 -215 -265
c-118 -145 -225 -269 -238 -274 -47 -22 -66 -4 -224 197 l-153 197 -5 -418
c-5 -400 -6 -419 -24 -433 -25 -18 -67 -18 -92 0 -18 14 -19 33 -24 433 l-5
418 -153 -197 c-158 -202 -177 -219 -224 -197 -13 5 -120 129 -238 275 l-215
264 -185 -1 c-136 0 -199 -5 -237 -16z m2491 -1314 c18 -14 26 -30 26 -52 -1
-75 -9 -77 -380 -77 l-321 0 -24 25 c-38 37 -29 96 18 115 12 5 164 9 338 9
305 1 317 0 343 -20z"/>
<path d="M225 3204 c-19 -30 -35 -58 -35 -63 0 -6 769 -375 831 -399 5 -2 9
32 9 75 l0 78 -385 182 -386 181 -34 -54z"/>
<path d="M4473 3076 l-383 -181 0 -79 c0 -58 3 -77 13 -73 84 35 827 392 827
398 0 9 -69 120 -73 118 -1 -1 -174 -83 -384 -183z"/>
</g>
</svg>
