<?xml version="1.0" standalone="no"?>
<!DOCTYPE svg PUBLIC "-//W3C//DTD SVG 20010904//EN"
 "http://www.w3.org/TR/2001/REC-SVG-20010904/DTD/svg10.dtd">
<svg version="1.0" xmlns="http://www.w3.org/2000/svg"
 width="512.000000pt" height="512.000000pt" viewBox="0 0 512.000000 512.000000"
 preserveAspectRatio="xMidYMid meet">

<g transform="translate(0.000000,512.000000) scale(0.100000,-0.100000)"
fill="#000000" stroke="none">
<path d="M0 2560 l0 -2560 348 0 c298 1 343 3 317 14 -40 18 -73 55 -85 95 -7
25 22 285 125 1105 73 589 139 1128 146 1198 12 134 8 323 -7 338 -5 4 -171
42 -368 85 -197 42 -371 82 -387 90 -35 18 -66 58 -74 94 -6 27 42 410 106
851 137 945 251 1080 1025 1220 l159 28 -652 1 -653 1 0 -2560z"/>
<path d="M1400 5102 c19 -9 48 -36 65 -59 16 -22 39 -43 50 -46 31 -9 217 -35
345 -49 176 -19 710 -16 890 5 229 27 323 44 332 61 20 36 64 80 93 92 25 11
-116 13 -890 14 -882 0 -919 -1 -885 -18z"/>
<path d="M3390 5094 c564 -98 744 -190 869 -445 100 -203 138 -390 251 -1226
29 -215 47 -384 44 -403 -9 -43 -61 -95 -109 -109 -21 -6 -192 -43 -380 -83
-187 -40 -343 -77 -347 -83 -13 -17 -9 -228 8 -387 8 -84 73 -618 144 -1186
105 -844 127 -1038 118 -1065 -14 -41 -45 -76 -83 -93 -25 -11 65 -13 593 -14
l622 0 0 2560 0 2560 -932 -1 -933 -1 135 -24z"/>
<path d="M1090 4780 c-91 -16 -201 -40 -245 -54 -235 -75 -317 -215 -394 -677
-36 -211 -125 -869 -119 -875 7 -7 471 -105 475 -100 2 2 -4 57 -13 122 -22
145 -24 408 -6 514 29 162 89 363 123 412 26 36 97 62 146 53 49 -9 108 -68
117 -118 5 -29 -1 -62 -28 -145 -58 -182 -71 -259 -70 -437 0 -128 6 -203 32
-375 34 -233 52 -422 52 -560 0 -68 -239 -2055 -265 -2207 l-6 -33 1395 0
1396 0 -5 28 c-3 15 -64 501 -135 1080 -141 1145 -144 1175 -115 1442 8 74 26
205 40 290 53 309 44 503 -33 750 -47 153 -49 179 -21 229 24 43 84 81 127 81
37 0 86 -25 115 -59 44 -53 115 -307 138 -495 14 -116 7 -313 -16 -465 -9 -57
-14 -105 -12 -107 5 -5 467 93 474 100 6 6 -82 657 -117 871 -80 476 -163 613
-418 686 -75 21 -332 69 -372 69 -22 0 -38 -17 -102 -113 -341 -505 -659 -785
-913 -804 -274 -21 -610 261 -994 835 -34 50 -63 92 -64 91 -1 0 -76 -14 -167
-29z"/>
<path d="M1776 4599 c79 -104 322 -340 389 -379 50 -30 69 -35 120 -35 52 0
70 5 120 35 75 45 251 214 356 342 l82 101 -64 -7 c-321 -33 -648 -33 -983 0
l-70 7 50 -64z"/>
</g>
</svg>
